<svg xmlns="http://www.w3.org/2000/svg" width="40.616" height="40.616" viewBox="0 0 40.616 40.616">
  <path id="google-plus-official" d="M24.248,20.546a8.869,8.869,0,0,0-.159-1.692H14.517v3.491h5.738a4.654,4.654,0,0,1-1.97,3.186,6.336,6.336,0,0,1-3.768,1.177,6.026,6.026,0,0,1-4.469-1.891,6.416,6.416,0,0,1,0-9.017,6.023,6.023,0,0,1,4.468-1.891,5.529,5.529,0,0,1,4.046,1.56l2.751-2.67a9.664,9.664,0,0,0-6.8-2.645,9.77,9.77,0,0,0-7.192,2.975,9.805,9.805,0,0,0-2.962,7.179,9.805,9.805,0,0,0,2.962,7.179,9.77,9.77,0,0,0,7.192,2.975,9.357,9.357,0,0,0,7.047-2.777A9.846,9.846,0,0,0,24.248,20.546Zm9.123,1.216h2.883V18.854H33.37V15.945H30.462v2.909H27.553v2.909h2.909v2.909H33.37Zm7.245-1.454A19.867,19.867,0,0,1,37.892,30.5,20.214,20.214,0,0,1,30.5,37.892a19.867,19.867,0,0,1-10.193,2.724,19.867,19.867,0,0,1-10.193-2.724A20.214,20.214,0,0,1,2.724,30.5,19.867,19.867,0,0,1,0,20.308,19.867,19.867,0,0,1,2.724,10.114a20.214,20.214,0,0,1,7.391-7.391A19.867,19.867,0,0,1,20.308,0,19.867,19.867,0,0,1,30.5,2.724a20.214,20.214,0,0,1,7.391,7.391A19.867,19.867,0,0,1,40.616,20.308Z" fill="#db0909"/>
</svg>
