<svg id="Group_4805" data-name="Group 4805" xmlns="http://www.w3.org/2000/svg" width="40.422" height="40.616" viewBox="0 0 40.422 40.616">
  <g id="Ellipse_65" data-name="Ellipse 65" transform="translate(3.451 31.294)" fill="#29c934" stroke="#707070" stroke-width="1">
    <ellipse cx="2.76" cy="2.796" rx="2.76" ry="2.796" stroke="none"/>
    <ellipse cx="2.76" cy="2.796" rx="2.26" ry="2.296" fill="none"/>
  </g>
  <g id="Ellipse_64" data-name="Ellipse 64" transform="translate(1.418 1.442)" fill="#29c934" stroke="#707070" stroke-width="1">
    <circle cx="18.812" cy="18.812" r="18.812" stroke="none"/>
    <circle cx="18.812" cy="18.812" r="18.312" fill="none"/>
  </g>
  <path id="whatsapp" d="M29.557,24.339c-.5-.252-2.975-1.467-3.435-1.636s-.8-.25-1.134.254-1.3,1.635-1.591,1.97-.587.378-1.09.126a13.814,13.814,0,0,1-4.045-2.5,15.074,15.074,0,0,1-2.8-3.485c-.292-.5-.03-.775.22-1.026.227-.226.5-.587.755-.88a3.48,3.48,0,0,0,.5-.842.918.918,0,0,0-.043-.88c-.126-.252-1.133-2.728-1.55-3.734-.41-.979-.824-.846-1.133-.863s-.643-.018-.965-.017a1.842,1.842,0,0,0-1.34.63,5.641,5.641,0,0,0-1.76,4.2,9.788,9.788,0,0,0,2.053,5.2c.252.335,3.547,5.415,8.591,7.594a28.407,28.407,0,0,0,2.867,1.058,6.858,6.858,0,0,0,3.166.2c.966-.144,2.975-1.217,3.395-2.391a4.174,4.174,0,0,0,.292-2.391c-.125-.21-.46-.335-.965-.587M20.379,36.869h-.007a16.7,16.7,0,0,1-8.514-2.332l-.61-.362L4.917,35.837l1.689-6.174-.4-.633a16.729,16.729,0,1,1,14.17,7.839M34.617,5.9A20.13,20.13,0,0,0,2.942,30.187L.086,40.616l10.67-2.8a20.108,20.108,0,0,0,9.617,2.45h.008A20.136,20.136,0,0,0,34.619,5.9Z" transform="translate(-0.086 0)" fill="#fff"/>
</svg>
