<svg id="event-schedule" xmlns="http://www.w3.org/2000/svg" width="17.696" height="19.82" viewBox="0 0 17.696 19.82">
  <path id="Path_2877" data-name="Path 2877" d="M20.288,27.076a5.663,5.663,0,1,1,5.663-5.663A5.663,5.663,0,0,1,20.288,27.076Zm0-9.91a4.247,4.247,0,1,0,4.247,4.247A4.247,4.247,0,0,0,20.288,17.166Z" transform="translate(-8.254 -7.256)" fill="#d88cea"/>
  <path id="Path_2878" data-name="Path 2878" d="M24.333,25.2,22.5,23.371V20.25h1.416v2.541l1.416,1.416Z" transform="translate(-11.174 -8.924)" fill="#d88cea"/>
  <path id="Path_2879" data-name="Path 2879" d="M21.488,5.081a1.416,1.416,0,0,0-1.416-1.416H17.241V2.25H15.826V3.666H10.163V2.25H8.747V3.666H5.916A1.416,1.416,0,0,0,4.5,5.081V19.238a1.416,1.416,0,0,0,1.416,1.416H8.747V19.238H5.916V5.081H8.747V6.5h1.416V5.081h5.663V6.5h1.416V5.081h2.831V9.328h1.416Z" transform="translate(-4.5 -2.25)" fill="#d88cea"/>
</svg>
