<svg id="Group_2667" data-name="Group 2667" xmlns="http://www.w3.org/2000/svg" width="15.849" height="21.121" viewBox="0 0 15.849 21.121">
  <path id="Path_2891" data-name="Path 2891" d="M1645.885,351.635c0-.083,0-.169,0-.255.005-.905-.022-1.812.022-2.716a5.933,5.933,0,0,1,11.778-.609,7.725,7.725,0,0,1,.077,1.113c.011.745,0,1.49,0,2.234v.219a6.431,6.431,0,0,1,.723.172,1.931,1.931,0,0,1,1.258,1.916c0,.986,0,1.972,0,2.957q0,2.727,0,5.455a1.9,1.9,0,0,1-1.12,1.875,2.132,2.132,0,0,1-.865.192q-5.937.018-11.874.006a1.941,1.941,0,0,1-1.984-2.029c-.008-1.154,0-2.308,0-3.461,0-1.665,0-3.33,0-4.995a1.936,1.936,0,0,1,1.424-1.972C1645.495,351.691,1645.67,351.674,1645.885,351.635Zm5.94,1.344h-5.783c-.608,0-.818.207-.818.813q0,4.14,0,8.281c0,.589.219.806.807.806h11.589c.588,0,.807-.217.807-.806q0-4.151,0-8.3c0-.578-.217-.791-.8-.791Zm4.6-1.331a1.165,1.165,0,0,0,.017-.137c0-.906.021-1.812-.011-2.717a4.613,4.613,0,0,0-9.22.232c-.01.811,0,1.621,0,2.432,0,.062.011.125.017.19Z" transform="translate(-1643.901 -343.078)" fill="#d88cea"/>
  <path id="Path_2892" data-name="Path 2892" d="M1746.848,550.642c0-.2-.011-.41,0-.613.011-.157-.05-.223-.19-.286a1.968,1.968,0,0,1,.173-3.635,1.983,1.983,0,0,1,2.506,1.1,1.955,1.955,0,0,1-1.036,2.558.206.206,0,0,0-.141.229c.005.416.005.832,0,1.248a.659.659,0,1,1-1.316-.008C1746.846,551.037,1746.848,550.839,1746.848,550.642Zm.672-2.014a.618.618,0,0,0,.644-.667.658.658,0,1,0-1.315.026A.618.618,0,0,0,1747.52,548.628Z" transform="translate(-1739.582 -534.115)" fill="#d88cea"/>
</svg>
