<svg id="Group_2665" data-name="Group 2665" xmlns="http://www.w3.org/2000/svg" width="19.547" height="14.508" viewBox="0 0 19.547 14.508">
  <path id="Path_2883" data-name="Path 2883" d="M774.164-315.11a4.7,4.7,0,0,1-.338.8,1.826,1.826,0,0,1-1.617.844q-2.367,0-4.733,0-5.44,0-10.879,0a1.905,1.905,0,0,1-1.921-1.46,2.192,2.192,0,0,1-.056-.51q0-5.287,0-10.574a1.906,1.906,0,0,1,1.965-1.963c.725,0,5.2,0,5.924,0a.391.391,0,0,1,.437.357.387.387,0,0,1-.427.405c-.706,0-5.161,0-5.867,0a1.156,1.156,0,0,0-1.27,1.263q0,5.23,0,10.459a1.155,1.155,0,0,0,1.257,1.257h15.5a1.157,1.157,0,0,0,1.264-1.27q0-5.22,0-10.44a1.156,1.156,0,0,0-1.265-1.269H762.02c-.347,0-.528-.13-.529-.38s.18-.383.526-.383h10.058a1.912,1.912,0,0,1,2.065,1.613c0,.011.015.019.023.029Z" transform="translate(-754.617 327.976)" fill="#d88cea"/>
  <path id="Path_2884" data-name="Path 2884" d="M812.189-268.718a3.672,3.672,0,0,1-3.66-3.67,3.67,3.67,0,0,1,3.67-3.66,3.67,3.67,0,0,1,3.66,3.669A3.672,3.672,0,0,1,812.189-268.718Zm2.24-1.842a2.866,2.866,0,0,0-.305-3.985,2.89,2.89,0,0,0-4.191.348,2.82,2.82,0,0,0,.016,3.6,6.575,6.575,0,0,1,.494-.575,6.979,6.979,0,0,1,.617-.468,1.645,1.645,0,0,1,.181-2.177,1.483,1.483,0,0,1,1.88-.022,1.651,1.651,0,0,1,.2,2.223A2.614,2.614,0,0,1,814.428-270.56Zm-3.873.553a2.844,2.844,0,0,0,3.274,0,1.746,1.746,0,0,0-1.625-1.105A1.758,1.758,0,0,0,810.556-270.007Zm2.329-2.637a.7.7,0,0,0-.438-.71.691.691,0,0,0-.766.178.829.829,0,0,0-.142.825.672.672,0,0,0,.774.468A.7.7,0,0,0,812.885-272.645Z" transform="translate(-806.467 278.033)" fill="#d88cea"/>
  <path id="Path_2885" data-name="Path 2885" d="M1051.184-224.329h-2.632c-.375,0-.5-.126-.5-.507q0-1.4,0-2.8c0-.382.123-.507.5-.507h5.263c.376,0,.5.126.5.506q0,1.4,0,2.8c0,.387-.123.508-.517.508Zm-2.353-3.046v2.267h4.709v-2.267Z" transform="translate(-1036.829 231.966)" fill="#d88cea"/>
  <path id="Path_2886" data-name="Path 2886" d="M1051.2-107.622h-2.593a1.56,1.56,0,0,1-.171,0,.383.383,0,0,1-.349-.386.383.383,0,0,1,.343-.371,1.107,1.107,0,0,1,.133,0h5.3c.032,0,.064,0,.1,0a.385.385,0,0,1,.387.388.383.383,0,0,1-.381.373c-.114.006-.229,0-.343,0Z" transform="translate(-1036.867 116.785)" fill="#d88cea"/>
  <path id="Path_2887" data-name="Path 2887" d="M835.543-63.67h-2.269c-.278,0-.454-.146-.458-.374a.4.4,0,0,1,.447-.388q2.288,0,4.576,0a.392.392,0,0,1,.428.274.359.359,0,0,1-.163.427.626.626,0,0,1-.273.059C837.069-63.668,836.306-63.67,835.543-63.67Z" transform="translate(-829.825 74.515)" fill="#d88cea"/>
  <path id="Path_2888" data-name="Path 2888" d="M1129.54-68.47c.387,0,.774,0,1.162,0a.39.39,0,0,1,.438.374.391.391,0,0,1-.443.388q-1.162,0-2.323,0a.389.389,0,0,1-.438-.374c0-.231.17-.387.443-.388C1128.766-68.471,1129.153-68.47,1129.54-68.47Z" transform="translate(-1113.656 78.396)" fill="#d88cea"/>
</svg>
