<svg id="Group_2666" data-name="Group 2666" xmlns="http://www.w3.org/2000/svg" width="19.57" height="19.529" viewBox="0 0 19.57 19.529">
  <path id="Path_2889" data-name="Path 2889" d="M1414.53-127.478a7.948,7.948,0,0,0-2.687-6.091,1.036,1.036,0,0,1-.4-1.092.962.962,0,0,1,1.573-.477,9.548,9.548,0,0,1,2.153,2.589,9.85,9.85,0,0,1-6.011,14.411,9.686,9.686,0,0,1-10.854-4.543,9.589,9.589,0,0,1,.624-10.877,11.518,11.518,0,0,1,1.393-1.508.949.949,0,0,1,1.39.035.974.974,0,0,1-.085,1.41,7.917,7.917,0,0,0-2.114,2.918,7.855,7.855,0,0,0,5.876,10.8,7.778,7.778,0,0,0,9.011-6.407C1414.473-126.753,1414.5-127.2,1414.53-127.478Z" transform="translate(-1396.908 137.35)" fill="#d88cea"/>
  <path id="Path_2890" data-name="Path 2890" d="M1543.264-162.688c0,1.3,0,2.592,0,3.888a.964.964,0,0,1-1.06,1.018.966.966,0,0,1-.877-.851c-.007-.068-.008-.137-.008-.206q0-3.842.005-7.684a1.338,1.338,0,0,1,.125-.569.945.945,0,0,1,1.067-.477.959.959,0,0,1,.746.948c.007,1.311,0,2.622,0,3.934Z" transform="translate(-1532.489 167.596)" fill="#d88cea"/>
</svg>
