<svg id="Group_2664" data-name="Group 2664" xmlns="http://www.w3.org/2000/svg" width="19.52" height="19.529" viewBox="0 0 19.52 19.529">
  <path id="Path_2881" data-name="Path 2881" d="M374.019-31.676q-1.72,1.716-3.437,3.435c-.121.122-.186.128-.3,0-.268-.288-.551-.563-.835-.837-.08-.077-.072-.117,0-.191.555-.549,1.105-1.1,1.658-1.655-.045-.056-.1-.033-.145-.032a15.667,15.667,0,0,0-1.655.039,3.345,3.345,0,0,0-2.761,2.752c-.052.381-.027.761-.043,1.142-.029.227-.005.455-.014.683,0,.059.021.139-.081.137-.474-.01-.948.026-1.421-.019a10.683,10.683,0,0,1,.109-2.451,4.779,4.779,0,0,1,3.23-3.573,4.55,4.55,0,0,1,1.574-.239c.373,0,.746,0,1.119,0l.036-.047c-.066-.054-.137-.1-.2-.164-.469-.466-.933-.937-1.4-1.4-.085-.084-.084-.126,0-.207.293-.282.582-.569.863-.863.093-.1.141-.093.234,0q1.653,1.665,3.315,3.32c.047.047.08.116.156.128Z" transform="translate(-354.499 45.726)" fill="#d88cea"/>
  <path id="Path_2882" data-name="Path 2882" d="M106.535-305.045a5.362,5.362,0,0,0-1.769-3.039,5.394,5.394,0,0,0-5.033-1.273,5.4,5.4,0,0,0-4.134,3.979,5.419,5.419,0,0,0,.953,4.935,5.641,5.641,0,0,0,1.27,1.213c-.069.029-.12.054-.173.073a9.686,9.686,0,0,0-5.189,4.481,9.413,9.413,0,0,0-1.189,4.651h1.513a8.69,8.69,0,0,1,.091-1.159,8.163,8.163,0,0,1,3.643-5.7,7.912,7.912,0,0,1,4.412-1.349,5.98,5.98,0,0,0,1.836-.283,5.554,5.554,0,0,0,2.88-2.146A5.507,5.507,0,0,0,106.535-305.045Zm-5.512,5.29a4.132,4.132,0,0,1-4.116-4.105,4.128,4.128,0,0,1,4.1-4.135,4.136,4.136,0,0,1,4.13,4.112A4.143,4.143,0,0,1,101.023-299.755Z" transform="translate(-91.27 309.528)" fill="#d88cea"/>
</svg>
